<svg xmlns="http://www.w3.org/2000/svg" version="1.1" xmlns:xlink="http://www.w3.org/1999/xlink" xmlns:svgjs="http://svgjs.dev/svgjs" width="1000" height="270" viewBox="0 0 1000 270"><g transform="matrix(1,0,0,1,-0.6060526701747335,0.23989844317293318)"><svg viewBox="0 0 396 107" data-background-color="#ffffff" preserveAspectRatio="xMidYMid meet" height="270" width="1000" xmlns="http://www.w3.org/2000/svg" xmlns:xlink="http://www.w3.org/1999/xlink"><g id="tight-bounds" transform="matrix(1,0,0,1,0.23999685738920107,-0.09507086451668556)"><svg viewBox="0 0 395.52 107.19014172903339" height="107.19014172903339" width="395.52"><g><svg viewBox="0 0 531.6114167009714 144.07236827707663" height="107.19014172903339" width="395.52"><g transform="matrix(1,0,0,1,136.09141670097142,19.911593589668335)"><svg viewBox="0 0 395.52 104.24918109773996" height="104.24918109773996" width="395.52"><g id="textblocktransform"><svg viewBox="0 0 395.52 104.24918109773996" height="104.24918109773996" width="395.52" id="textblock"><g><svg viewBox="0 0 395.52 104.24918109773996" height="104.24918109773996" width="395.52"><g transform="matrix(1,0,0,1,0,0)"><svg width="395.52" viewBox="1.100000023841858 -44.400001525878906 170.33999633789062 44.900001525878906" height="104.24918109773996" data-palette-color="#3c2c32"><path d="M1.9 0Q1.6 0 1.6-0.6L1.6-0.6Q1.6-1.3 1.98-1.9 2.35-2.5 3.15-3.2L3.15-3.2Q3.95-4 4.3-4.45 4.65-4.9 4.93-5.75 5.2-6.6 5.6-8.35L5.6-8.35 10.15-30.25 9.85-30.25Q9.6-30.25 8.8-30.35L8.8-30.35Q7.8-30.55 6.7-30.55L6.7-30.55Q5.25-30.55 4.28-30.15 3.3-29.75 2.5-28.7L2.5-28.7Q2.25-28.35 2-28.13 1.75-27.9 1.55-27.9L1.55-27.9Q1.1-27.9 1.1-28.4L1.1-28.4Q1.1-28.9 1.2-29.2L1.2-29.2Q1.7-31.75 3.65-33.23 5.6-34.7 8.55-34.7L8.55-34.7Q9.15-34.7 10.45-34.6L10.45-34.6Q11.6-34.45 12.85-34.45L12.85-34.45Q13.3-34.45 15.1-34.6L15.1-34.6Q16-34.7 16.35-34.7L16.35-34.7Q16.25-33.4 16.25-32.45L16.25-32.45Q16.25-30.6 16.7-28.18 17.15-25.75 18.15-21.4L18.15-21.4 19.7-14.75Q20.05-13.75 20.15-13L20.15-13Q25.3-22.3 26.98-25.53 28.65-28.75 29.8-31.25L29.8-31.25Q30.4-32.45 30.75-33.25L30.75-33.25Q32.75-37.35 34.38-39.45 36-41.55 38.25-42.65L38.25-42.65Q39.75-43.4 41.45-43.65 43.15-43.9 45.4-43.9L45.4-43.9Q46.55-43.9 47.1-44.1L47.1-44.1Q47.45-44.2 47.7-44.3 47.95-44.4 48.1-44.4L48.1-44.4Q48.5-44.4 48.5-43.85L48.5-43.85Q48.5-42.8 47.25-41.8 46-40.8 44.6-40.8L44.6-40.8Q42.95-40.75 41.9-40.6 40.85-40.45 39.85-40L39.85-40Q37.95-39.1 36.95-36.75 35.95-34.4 35.3-29.75L35.3-29.75Q34.95-27.6 34.68-24.95 34.4-22.3 34.15-19.45L34.15-19.45Q33.5-12.15 32.9-7.3L32.9-7.3Q32.85-6.35 32.52-5.58 32.2-4.8 31.75-4.4L31.75-4.4 31.75-4.35Q32.75-3.85 33.75-3.85L33.75-3.85Q34.45-3.85 35.18-4.13 35.9-4.4 36.1-4.4L36.1-4.4Q36.3-4.4 36.38-4.3 36.45-4.2 36.45-3.9L36.45-3.9Q36.45-3.25 35.85-2.6L35.85-2.6Q33.85 0 31.95 0L31.95 0Q31.25 0 30-0.35L30-0.35Q29.85-0.4 29.05-0.6 28.25-0.8 27.45-0.8L27.45-0.8Q26.4-0.8 25.48-0.4 24.55 0 24.35 0L24.35 0Q24 0 24-0.6L24-0.6Q24-1.95 25.6-3.2L25.6-3.2 26.5-3.9Q27.1-4.35 27.33-4.63 27.55-4.9 27.6-5.5L27.6-5.5 27.7-6.55Q28.5-15.25 28.8-17.53 29.1-19.8 29.45-22.95L29.45-22.95 29.4-22.95Q27.3-19.6 25.05-15.2 22.8-10.8 21.4-7.2L21.4-7.2Q20.3-5.35 18.82-3.6 17.35-1.85 16.8-1.85L16.8-1.85Q16.65-1.85 16.57-2.02 16.5-2.2 16.5-2.5L16.5-2.5Q16.1-6.1 15.88-7.78 15.65-9.45 14.9-12.85L14.9-12.85Q14.55-14.35 13.88-17.25 13.2-20.15 12.9-21.75L12.9-21.75 12.85-21.8 9.8-6.65Q9.75-6.5 9.47-5.58 9.2-4.65 8.8-4.3L8.8-4.3 8.8-4.2Q9.75-3.85 10.6-3.85L10.6-3.85Q11.35-3.85 11.93-4.13 12.5-4.4 12.7-4.4L12.7-4.4Q13.1-4.4 13.1-3.9L13.1-3.9Q13.1-3.45 12.5-2.6L12.5-2.6Q11.4-1.1 10.6-0.55 9.8 0 8.8 0L8.8 0Q8.1 0 7.1-0.4L7.1-0.4Q5.9-0.8 5.1-0.8L5.1-0.8Q3.95-0.8 3-0.4 2.05 0 1.9 0L1.9 0ZM44.45 0.5Q41.85 0.5 41.85-3.45L41.85-3.45Q41.85-4.95 42.3-7.65L42.3-7.65 43.85-16.8Q44.05-17.8 44.05-18.5L44.05-18.5Q44.05-19.15 43.6-19.15L43.6-19.15Q43.1-19.15 42.52-18.48 41.95-17.8 40.95-16L40.95-16Q40.75-15.6 40.5-15.28 40.25-14.95 40-14.95L40-14.95Q39.5-14.95 39.5-15.8L39.5-15.8Q39.5-17.1 40.7-19.03 41.9-20.95 43.62-22.38 45.35-23.8 46.95-23.8L46.95-23.8Q48.05-23.8 48.62-23.13 49.2-22.45 49.2-21.2L49.2-21.2Q49.2-20.9 49.1-20.2L49.1-20.2 46.95-5.85 46.95-5.35Q46.95-4.95 47.05-4.78 47.15-4.6 47.45-4.6L47.45-4.6Q48.6-4.6 50.17-6.45 51.75-8.3 53.1-11.18 54.45-14.05 55-17L55-17 55.5-19.6Q55.85-21.45 57.35-22.63 58.85-23.8 60.65-23.8L60.65-23.8Q61.05-23.8 61.22-23.7 61.4-23.6 61.4-23.3L61.4-23.3Q61.4-23.1 61.15-22.5 60.9-21.9 60.6-20.25L60.6-20.25Q60.15-18.5 58.05-7.2L58.05-7.2Q57.8-6.1 57.8-5.15L57.8-5.15Q57.8-4.2 58.4-4.2L58.4-4.2Q59.2-4.2 59.75-5.08 60.3-5.95 61.35-8.1L61.35-8.1Q61.6-8.8 61.95-8.8L61.95-8.8Q62.4-8.8 62.4-7.95L62.4-7.95Q62.4-6.3 61.32-4.3 60.25-2.3 58.55-0.9 56.85 0.5 55.15 0.5L55.15 0.5Q52.8 0.5 52.8-2.45L52.8-2.45Q52.8-3.85 53.3-6.5L53.3-6.5 53.2-6.55Q51.25-3.6 48.9-1.55 46.55 0.5 44.45 0.5L44.45 0.5ZM65.35 0.5Q64.55 0.5 64.55 0L64.55 0Q64.55-0.25 64.9-1.4L64.9-1.4Q65.4-2.85 65.55-3.6L65.55-3.6Q66.05-6.25 67.35-14.8L67.35-14.8 68.65-22.9Q69.65-28.85 71.17-32.95 72.7-37.05 75-39.6L75-39.6Q76.8-41.6 78.47-42.28 80.15-42.95 82.7-43.35L82.7-43.35Q84.3-43.6 84.8-43.73 85.3-43.85 85.45-43.85L85.45-43.85Q85.85-43.85 85.85-43.3L85.85-43.3Q85.85-42.85 85.47-42.23 85.1-41.6 84.55-41.05L84.55-41.05Q83.75-40.3 82.15-40.3L82.15-40.3Q80.6-40.15 79.45-39.45 78.3-38.75 77.25-37.2L77.25-37.2Q75.8-35 74.95-31.53 74.1-28.05 73.2-21.25L73.2-21.25 72.55-16.45 72.6-16.45Q77.85-23.8 81.65-23.8L81.65-23.8Q82.9-23.8 83.55-22.98 84.2-22.15 84.2-20.25L84.2-20.25Q84.2-18.8 83.75-16.45L83.75-16.45Q82.75-11.25 82.3-9.1L82.3-9.1Q81.65-5.55 81.65-5.2L81.65-5.2Q81.65-4.2 82.3-4.2L82.3-4.2Q83.05-4.2 83.7-5.18 84.35-6.15 85.15-8.1L85.15-8.1Q85.4-8.8 85.75-8.8L85.75-8.8Q86.2-8.8 86.2-7.85L86.2-7.85Q86.2-6.1 85.1-4.13 84-2.15 82.32-0.83 80.65 0.5 79 0.5L79 0.5Q76.5 0.5 76.5-2.8L76.5-2.8Q76.5-4.1 76.8-5.95 77.1-7.8 77.7-10.7L77.7-10.7Q78.1-12.65 78.42-14.6 78.75-16.55 78.8-17.75L78.8-17.75 78.8-18.05Q78.8-18.95 78.25-18.95L78.25-18.95Q77.4-18.95 75.92-17.18 74.45-15.4 73.1-12.75 71.75-10.1 71.3-7.65L71.3-7.65 70.5-3.6Q70.15-2.1 68.52-0.8 66.9 0.5 65.35 0.5L65.35 0.5ZM94.84-25.5Q94.49-25.5 94.39-25.63 94.29-25.75 94.34-26.1L94.34-26.1 95.04-30.05Q95.34-31.65 96.44-32.63 97.54-33.6 99.59-33.6L99.59-33.6 99.99-33.6Q100.54-33.6 100.49-33.05L100.49-33.05 99.79-29.1Q99.19-25.5 95.19-25.5L95.19-25.5 94.84-25.5ZM92.74 0.5Q90.29 0.5 90.29-2.8L90.29-2.8Q90.29-3.7 90.54-5.2L90.54-5.2 92.94-17.3Q93.04-18.2 93.04-18.4L93.04-18.4Q93.04-19.1 92.59-19.1L92.59-19.1Q92.14-19.1 91.54-18.38 90.94-17.65 89.99-16L89.99-16Q89.94-15.9 89.77-15.58 89.59-15.25 89.44-15.1 89.29-14.95 89.14-14.95L89.14-14.95Q88.69-14.95 88.69-15.75L88.69-15.75Q88.69-17.15 89.89-19.07 91.09-21 92.89-22.4 94.69-23.8 96.39-23.8L96.39-23.8Q98.49-23.8 98.49-21L98.49-21Q98.49-20.2 98.14-18.25L98.14-18.25 95.64-5.35Q95.54-4.95 95.54-4.8L95.54-4.8Q95.54-4.2 96.09-4.2L96.09-4.2Q96.74-4.2 97.57-5.25 98.39-6.3 99.14-8.1L99.14-8.1Q99.39-8.8 99.74-8.8L99.74-8.8Q100.19-8.8 100.19-7.95L100.19-7.95Q100.19-6.2 99.04-4.23 97.89-2.25 96.17-0.88 94.44 0.5 92.74 0.5L92.74 0.5ZM104.54 0.5Q103.69 0.5 103.69-0.1L103.69-0.1Q103.69-0.35 104.07-1.23 104.44-2.1 104.79-3.95L104.79-3.95 105.64-8.75Q106.99-16.45 107.04-17.75L107.04-17.75 107.04-18.2Q107.04-19.05 106.59-19.05L106.59-19.05Q105.64-19.05 103.99-16L103.99-16Q103.79-15.6 103.54-15.28 103.29-14.95 103.04-14.95L103.04-14.95Q102.54-14.95 102.54-15.8L102.54-15.8Q102.54-17.1 103.72-19.03 104.89-20.95 106.62-22.38 108.34-23.8 109.94-23.8L109.94-23.8Q112.09-23.8 112.09-20.95L112.09-20.95Q112.09-20.35 111.69-16.75L111.69-16.75 111.74-16.75Q113.84-20.45 115.72-22.13 117.59-23.8 119.49-23.8L119.49-23.8Q120.79-23.8 121.59-23.05 122.39-22.3 122.39-20.9L122.39-20.9Q122.39-19.55 121.77-18.25 121.14-16.95 120.24-16.13 119.34-15.3 118.69-15.3L118.69-15.3Q118.29-15.3 118.44-15.8L118.44-15.8Q118.59-16.5 118.59-17.1L118.59-17.1Q118.59-18.4 117.44-18.4L117.44-18.4Q115.54-18.4 113.67-15.8 111.79-13.2 110.74-8.3L110.74-8.3Q109.99-5.2 109.74-3.45L109.74-3.45Q109.49-2.05 107.77-0.78 106.04 0.5 104.54 0.5L104.54 0.5ZM127.39 0.5Q126.49 0.5 126.49-0.05L126.49-0.05Q126.49-0.25 126.71-0.8 126.94-1.35 127.04-2.35L127.04-2.35Q127.24-3.7 127.24-6.3L127.24-6.3Q127.24-9.55 126.89-14.25L126.89-14.25Q126.64-17.05 126.44-18.05 126.24-19.05 125.54-19.05L125.54-19.05Q125.04-19.05 124.69-18.55 124.34-18.05 123.79-16.8L123.79-16.8Q123.49-16.1 123.26-15.8 123.04-15.5 122.74-15.5L122.74-15.5Q122.24-15.5 122.24-16.3L122.24-16.3Q122.24-17.8 122.96-19.58 123.69-21.35 124.94-22.58 126.19-23.8 127.69-23.8L127.69-23.8Q130.44-23.8 131.19-19.65L131.19-19.65Q131.59-17.1 131.94-9.05L131.94-9.05Q134.74-14.75 136.34-20.45L136.34-20.45Q138.94-23.8 140.24-23.8L140.24-23.8Q140.54-23.8 140.61-23.6 140.69-23.4 140.69-22.95L140.69-22.95 140.74-17 141.29-8.1Q143.54-11.7 144.61-13.88 145.69-16.05 145.69-17.75L145.69-17.75Q145.69-18.4 145.49-18.8 145.29-19.2 144.89-19.63 144.49-20.05 144.49-20.35L144.49-20.35Q144.49-20.85 145.11-21.68 145.74-22.5 146.61-23.15 147.49-23.8 148.19-23.8L148.19-23.8Q149.04-23.8 149.66-22.83 150.29-21.85 150.29-20.4L150.29-20.4Q150.29-19.1 149.79-17.93 149.29-16.75 147.79-14L147.79-14Q147.19-13.05 146.49-11.7L146.49-11.7 142.14-3.8Q141.44-2.5 140.01-1 138.59 0.5 137.34 0.5L137.34 0.5Q136.64 0.5 136.64-0.1L136.64-0.1Q136.64-0.3 136.74-0.65 136.84-1 136.89-1.2L136.89-1.2Q137.34-2.65 137.34-3.35L137.34-3.35Q137.34-4.45 137.16-7.68 136.99-10.9 136.69-13.45L136.69-13.45 136.64-13.45Q135.39-11.25 134.46-9.03 133.54-6.8 132.54-3.45L132.54-3.45Q131.39-1.6 130.04-0.55 128.69 0.5 127.39 0.5L127.39 0.5ZM153.54 0.5Q151.99 0.5 151.11-1.05 150.24-2.6 150.24-5.2L150.24-5.2Q150.24-9.35 152.26-13.7 154.29-18.05 157.79-20.93 161.29-23.8 165.34-23.8L165.34-23.8Q166.64-23.8 167.91-23.5 169.19-23.2 169.99-22.75L169.99-22.75Q169.54-21.65 169.39-20.95 169.24-20.25 169.19-20.05L169.19-20.05Q168.84-18.25 168.16-14.58 167.49-10.9 166.89-7.55L166.89-7.55Q166.59-6.05 166.59-5.25L166.59-5.25Q166.59-4.7 166.76-4.45 166.94-4.2 167.29-4.2L167.29-4.2Q168.14-4.2 168.84-5.23 169.54-6.25 170.34-8.1L170.34-8.1Q170.44-8.4 170.59-8.6 170.74-8.8 170.99-8.8L170.99-8.8Q171.44-8.8 171.44-8.1L171.44-8.1Q171.44-7.75 171.39-7.55L171.39-7.55Q171.14-5.65 170.09-3.78 169.04-1.9 167.51-0.7 165.99 0.5 164.39 0.5L164.39 0.5Q163.09 0.5 162.36-0.45 161.64-1.4 161.64-3L161.64-3Q161.64-3.4 161.74-4.2L161.74-4.2 161.99-5.9 161.89-5.9Q160.04-3.1 157.66-1.3 155.29 0.5 153.54 0.5L153.54 0.5ZM156.39-4.45Q157.49-4.45 159.21-6.4 160.94-8.35 162.44-11.33 163.94-14.3 164.44-17.25L164.44-17.25 164.79-19.2Q163.54-19.95 162.49-19.95L162.49-19.95Q160.89-19.95 159.26-17.98 157.64-16 156.61-12.88 155.59-9.75 155.59-6.5L155.59-6.5Q155.59-5.3 155.76-4.88 155.94-4.45 156.39-4.45L156.39-4.45Z" opacity="1" transform="matrix(1,0,0,1,0,0)" fill="#3c2c32" class="undefined-text-0" data-fill-palette-color="primary" id="text-0"></path></svg></g></svg></g></svg></g></svg></g><g><svg viewBox="0 0 111.48068702414136 144.07236827707663" height="144.07236827707663" width="111.48068702414136"><g><svg xmlns="http://www.w3.org/2000/svg" xmlns:xlink="http://www.w3.org/1999/xlink" version="1.1" x="0" y="0" viewBox="12.982999801635742 1 75.68599700927734 97.81300354003906" enable-background="new 0 0 100 100" xml:space="preserve" height="144.07236827707663" width="111.48068702414136" class="icon-icon-0" data-fill-palette-color="accent" id="icon-0"><g fill="#fbb168" data-fill-palette-color="accent"><polygon fill-rule="evenodd" clip-rule="evenodd" points="12.983,10.59 30.001,98.813 24.129,39.764 53.15,37.872 53.096,27.989    64.549,1 53.622,18.977  " fill="#fbb168" data-fill-palette-color="accent"></polygon><polygon fill-rule="evenodd" clip-rule="evenodd" points="59.389,54.548 64.549,1.007 55.809,40.723 36.197,41.768 37.767,62.23    30.001,98.813 42.058,58.914  " fill="#fbb168" data-fill-palette-color="accent"></polygon><polygon fill-rule="evenodd" clip-rule="evenodd" points="62.8,67.182 63.349,56.729 47.37,60.484 47.338,72.281 30.001,98.813    51.681,71.197  " fill="#fbb168" data-fill-palette-color="accent"></polygon><polygon fill-rule="evenodd" clip-rule="evenodd" points="65.711,62.394 80.552,57.663 82.061,45.131 66.162,47.226  " fill="#fbb168" data-fill-palette-color="accent"></polygon><polygon fill-rule="evenodd" clip-rule="evenodd" points="72.07,44.502 83.058,43.085 84.639,32.807 76.56,32.434 64.549,1    72.979,31.967  " fill="#fbb168" data-fill-palette-color="accent"></polygon><polygon fill-rule="evenodd" clip-rule="evenodd" points="87.413,31.294 88.669,21.788 79.125,19.094 64.549,1 79.032,23.437    78.61,30.437  " fill="#fbb168" data-fill-palette-color="accent"></polygon></g></svg></g></svg></g></svg></g><defs></defs></svg><rect width="395.52" height="107.19014172903339" fill="none" stroke="none" visibility="hidden"></rect></g></svg></g></svg>